<svg xmlns="http://www.w3.org/2000/svg" width="13.79" height="20.971" viewBox="0 0 13.79 20.971">
  <g id="noun-mobile-5675295" transform="translate(0.253 0.25)">
    <path id="Vereinigungsmenge_1" data-name="Vereinigungsmenge 1" d="M10131.325-18668.795a1.183,1.183,0,0,1-1.183-1.182v-18.607a1.183,1.183,0,0,1,1.183-1.182h11.426a1.182,1.182,0,0,1,1.182,1.182v18.607a1.182,1.182,0,0,1-1.182,1.182Zm-.062-1.182a.058.058,0,0,0,.062.057h11.426a.055.055,0,0,0,.061-.057v-2.332h-11.548Zm0-3.453h11.548v-12.326h-11.548Zm0-15.154v1.707h11.548v-1.707a.058.058,0,0,0-.061-.061h-11.426A.062.062,0,0,0,10131.264-18688.584Z" transform="translate(-10130.396 18689.516)" fill="#fff"/>
    <path id="Pfad_593" data-name="Pfad 593" d="M516.308,116.86H514.97a.195.195,0,0,0,0,.389h1.338a.195.195,0,0,0,0-.389Z" transform="translate(-508.701 -115.251)" fill="#fff"/>
    <path id="Pfad_594" data-name="Pfad 594" d="M746.645,116.86h-.255a.195.195,0,0,0,0,.389h.255a.195.195,0,0,0,0-.389Z" transform="translate(-737.494 -115.251)" fill="#fff"/>
    <path id="Pfad_595" data-name="Pfad 595" d="M539.774,992.238a.845.845,0,1,0-.845-.845A.846.846,0,0,0,539.774,992.238Zm0-1.215a.366.366,0,0,1,.37.37.37.37,0,0,1-.74,0A.366.366,0,0,1,539.774,991.023Z" transform="translate(-533.13 -972.991)" fill="#fff"/>
  </g>
</svg>
