<svg xmlns="http://www.w3.org/2000/svg" width="18.021" height="18.02" viewBox="0 0 18.021 18.02">
  <path id="noun-phone-5584559-FFFFFF" d="M128.391,139.415l3.948-1.675a.712.712,0,0,1,.8.167l3.144,3.316a17.354,17.354,0,0,0,2.812-2.2,17.538,17.538,0,0,0,2.215-2.83l-3.316-3.143a.715.715,0,0,1-.166-.8L139.5,128.3a1.667,1.667,0,0,1,1.9-.977l2.32.516a2.115,2.115,0,0,1,1.372.992,2.192,2.192,0,0,1,.223,1.712,24.8,24.8,0,0,1-2.435,5.817.617.617,0,0,1-.083.139,19.257,19.257,0,0,1-2.69,3.53,22,22,0,0,1-9.471,5.192,2.2,2.2,0,0,1-1.714-.224,2.111,2.111,0,0,1-.99-1.371l-.516-2.321a1.668,1.668,0,0,1,.977-1.9Zm15.545-9.256a.742.742,0,0,0-.075-.59.7.7,0,0,0-.454-.329l-2.32-.516a.235.235,0,0,0-.051-.006.239.239,0,0,0-.219.146l-1.481,3.491,2.711,2.569a24,24,0,0,0,1.89-4.766Zm-14.611,13.164a.7.7,0,0,0,.328.453.749.749,0,0,0,.591.076,24.086,24.086,0,0,0,4.767-1.889l-2.57-2.712-3.491,1.481a.239.239,0,0,0-.14.271l.516,2.321Z" transform="translate(-127.373 -127.288)" fill="#fff"/>
</svg>
