<svg xmlns="http://www.w3.org/2000/svg" width="20.302" height="20.303" viewBox="0 0 20.302 20.303"><path d="M10.152,0A10.151,10.151,0,1,1,2.977,2.96,10.151,10.151,0,0,1,10.152,0ZM9.377,7.715H7.566a1.512,1.512,0,0,0-.39.055.378.378,0,0,0-.3.315.361.361,0,0,0,.2.418,1.841,1.841,0,0,0,.619.166c.564.026.792.274.707.855-.158,1.086-.372,2.164-.554,3.248-.124.731-.227,1.464-.347,2.195A1.946,1.946,0,0,0,8.993,17h0a8.659,8.659,0,0,0,1.3.083,3.393,3.393,0,0,0,2.467-1.068.938.938,0,0,0,.254-.392.481.481,0,0,0-.085-.374.368.368,0,0,0-.319-.034c-.166.055-.315.169-.477.24a2.944,2.944,0,0,1-.593.2.579.579,0,0,1-.715-.516,1.954,1.954,0,0,1-.018-.573c.069-.471.166-.938.252-1.4q.347-1.91.7-3.823a2.741,2.741,0,0,0,.1-1.06.609.609,0,0,0-.662-.564H9.377Zm1.1-4.515h0a1.834,1.834,0,1,0,1.268.58,1.843,1.843,0,0,0-1.268-.58Z" transform="translate(0.009)" fill="#797979"/></svg>