<svg id="Gruppe_283" data-name="Gruppe 283" xmlns="http://www.w3.org/2000/svg" width="19.856" height="15.135" viewBox="0 0 19.856 15.135">
  <path id="noun-send-mail-5591444-FFFFFF" d="M35.186,305.05a.692.692,0,1,1-1.384,0v-5.7a.692.692,0,0,1,.692-.692H52.966a.692.692,0,0,1,.692.692V313.1a.692.692,0,0,1-.692.693H34.493a.692.692,0,0,1-.692-.693v-3.292a.692.692,0,1,1,1.384,0v1.614l5.145-5.2-5.145-5.2v4.021Zm.967,7.357H51.307l-5.15-5.2-1.94,1.96a.691.691,0,0,1-.976,0L41.3,307.2l-5.15,5.2Zm16.122-.986v-10.4l-5.146,5.2Zm-6.631-5.659a.261.261,0,0,1,.027-.028l.02-.019,5.618-5.674H36.152L43.73,307.7l1.913-1.932Z" transform="translate(-33.801 -298.659)" fill="#fff"/>
</svg>
